Coordinates
version=1
nRows=21
nColumns=19
inDegrees=yes

Units are S.I. units (second, meters, Newtons, ...)
If the header above contains a line with 'inDegrees', this indicates whether rotational values are in degrees (yes) or radians (no).

endheader
time	subtalar_angle_l	subtalar_angle_r	pelvis_list	pelvis_rotation	pelvis_tilt	pelvis_tx	pelvis_ty	pelvis_tz	hip_flexion_l	hip_adduction_l	hip_rotation_l	hip_flexion_r	hip_adduction_r	hip_rotation_r	knee_flexion_l	knee_flexion_r	ankle_angle_l	ankle_angle_r
      2.94000000	     20.19496930	     17.14215798	     87.36053464	      9.42936169	    -10.97643666	      1.58602815	     -0.81059519	      0.88310761	     21.92271525	     -0.25720689	     -3.79818441	     16.23789588	      9.62260721	      6.44333330	    -47.91803676	     -9.55887081	     10.86476127	      7.05635414
      2.95000000	     18.97966336	     17.37650317	     87.76543813	      9.17846562	    -10.97725534	      1.59722955	     -0.80861529	      0.88526093	     23.37868955	     -0.89292872	     -3.02285660	     14.57434047	      9.09668858	      6.71234658	    -47.18491578	     -8.00197125	     11.78290946	      6.69456323
      2.96000000	     17.88868758	     17.60168224	     88.17019104	      8.88458866	    -10.98276839	      1.60833197	     -0.80662471	      0.88718936	     24.77151123	     -1.52279873	     -2.28281572	     12.97413677	      8.56563764	      6.97397289	    -46.17365039	     -6.52218289	     12.49535476	      6.32497499
      2.97000000	     17.01212510	     17.80530618	     88.55867713	      8.55260734	    -10.97927760	      1.61936067	     -0.80465077	      0.88886444	     26.08443016	     -2.12320935	     -1.60234302	     11.43444444	      8.05068582	      7.23189518	    -44.89496067	     -5.14321606	     13.02487744	      5.97412142
      2.98000000	     16.35339444	     17.97474786	     88.92097465	      8.18208841	    -10.98846454	      1.63032158	     -0.80270912	      0.89027556	     27.33641097	     -2.68073451	     -1.00562556	      9.99326689	      7.56540138	      7.48351600	    -43.35986163	     -3.89505396	     13.39519376	      5.65567127
      2.99000000	     16.18803039	     18.13437823	     89.23813655	      7.76365651	    -11.03879119	      1.64122194	     -0.80082531	      0.89141981	     28.55825355	     -3.16069190	     -0.48459466	      8.68805263	      7.13466261	      7.77102095	    -41.58176092	     -2.79945138	     13.52524897	      5.57204446
      3.00000000	     16.06370652	     18.25698922	     89.51394633	      7.32789174	    -11.04726617	      1.65213525	     -0.79900261	      0.89226514	     29.63327001	     -3.58880350	     -0.12996127	      7.42512550	      6.75179279	      8.01479515	    -39.55520915	     -1.84324945	     13.65617463	      5.41694611
      3.01000000	     16.07657927	     18.32629174	     89.73822581	      6.84760596	    -11.05318380	      1.66306531	     -0.79724936	      0.89281534	     30.59895226	     -3.93020673	      0.10246654	      6.26027581	      6.42959068	      8.24259911	    -37.29233131	     -1.05986751	     13.72309695	      5.24153565
      3.02000000	     16.18664791	     18.37209581	     89.92989967	      6.34276703	    -11.12703844	      1.67400310	     -0.79555856	      0.89310009	     31.49879728	     -4.22731946	      0.13499864	      5.32148453	      6.14875623	      8.27043073	    -34.78648395	     -0.53422819	     13.74950171	      5.22944389
      3.03000000	     17.13902029	     18.21104881	     89.99617528	      5.79754790	    -11.03514150	      1.68511588	     -0.79403265	      0.89300449	     32.12025795	     -4.31904673	      0.10324430	      4.16783332	      6.01094776	      8.69991247	    -32.11993486	      0.01133314	     13.42036938	      5.09154671
      3.04000000	     17.61099276	     18.22537698	     90.01747012	      5.20308845	    -10.96159948	      1.69632164	     -0.79256574	      0.89261685	     32.59234231	     -4.33792190	     -0.12807332	      3.17543596	      5.92359336	      8.99739745	    -29.25866452	      0.29419635	     13.28572852	      5.24193521
      3.05000000	     18.33505627	     18.16085198	     89.97196193	      4.60590743	    -10.81938405	      1.70771842	     -0.79121645	      0.89189006	     32.83313532	     -4.25310087	     -0.54738080	      2.18848970	      5.91438602	      9.23529636	    -26.27222143	      0.41119084	     12.95561535	      5.48125329
      3.06000000	     18.97160032	     18.09369922	     89.84496386	      3.99029067	    -10.62936112	      1.71930114	     -0.78998442	      0.89083406	     32.86826608	     -4.04453583	     -1.16238160	      1.24203825	      5.99863521	      9.45940619	    -23.22932577	      0.32603932	     12.62388882	      5.75567877
      3.07000000	     19.68995764	     17.95366808	     89.63615473	      3.35737852	    -10.41485920	      1.73109236	     -0.78887852	      0.88947022	     32.74964972	     -3.69697285	     -1.90484549	      0.35112190	      6.17671718	      9.70589434	    -20.23055558	      0.04161366	     12.09718775	      6.18181411
      3.08000000	     19.98600777	     17.92848782	     89.37930644	      2.72701242	    -10.01995402	      1.74318251	     -0.78788248	      0.88777164	     32.33212909	     -3.24355198	     -2.72206054	     -0.65960718	      6.41192495	      9.90538156	    -17.37357857	     -0.42785772	     11.83217692	      6.44685991
      3.09000000	     20.21369551	     17.83396966	     89.05864626	      2.10892881	     -9.62537647	      1.75546420	     -0.78702582	      0.88585011	     31.85506799	     -2.67924629	     -3.58359184	     -1.56678995	      6.73089239	     10.11249294	    -14.77689001	     -1.15034421	     11.23515173	      6.95029306
      3.10000000	     20.30153216	     17.78130257	     88.73655918	      1.51830925	     -9.12836798	      1.76799220	     -0.78626084	      0.88373703	     31.25492133	     -2.07405335	     -4.34194152	     -2.46882966	      7.06537695	     10.20488201	    -12.55179918	     -2.12859590	     10.87332631	      7.26308763
      3.11000000	     20.22965711	     17.71275636	     88.42386778	      0.96592113	     -8.66709153	      1.78065177	     -0.78557007	      0.88156317	     30.70106749	     -1.47293718	     -5.02650342	     -3.18407757	      7.41119547	     10.20601623	    -10.76588951	     -3.41977932	     10.35991616	      7.64113980
      3.12000000	     20.17925906	     17.64134952	     88.13930157	      0.47552279	     -8.28449339	      1.79337792	     -0.78493448	      0.87941974	     30.25667421	     -0.93042105	     -5.68167938	     -3.64432129	      7.75423122	     10.08894008	     -9.47557673	     -5.04332947	     10.03087309	      7.82459277
      3.13000000	     19.61968968	     17.62810948	     87.95688757	      0.00438234	     -7.97450974	      1.80615960	     -0.78426251	      0.87738096	     29.91140965	     -0.51537097	     -6.17441456	     -3.80837347	      8.00360735	      9.81037612	     -8.66012400	     -7.06411333	      9.21939250	      8.18103758
      3.14000000	     19.42554253	     17.50080894	     87.86847910	     -0.38199247	     -7.70629000	      1.81896014	     -0.78356950	      0.87543530	     29.70216716	     -0.25888742	     -6.48643678	     -3.68452590	      8.16545817	      9.22527300	     -8.42456437	     -9.47258860	      8.97806235	      8.12238112
